mtllib scout.mtl
o scout.obj
v 10.207172 -2.780272 -5.917090
v -16.343958 -2.780272 -5.917090
v 3.164042 -3.194962 -6.635340
v 3.164042 -2.365602 -6.635340
v 3.164042 -1.950912 -5.917090
v 3.164042 -2.365602 -5.198840
v 3.164042 -3.194962 -5.198840
v 3.164042 -3.609632 -5.917090
v -13.246429 -1.891742 -5.917090
v -13.246429 -2.336012 -5.147600
v -13.246429 -3.224542 -5.147600
v -13.246429 -3.668802 -5.917090
v -13.246429 -3.224542 -6.686580
v -13.246429 -2.336012 -6.686580
v -3.121559 -3.345552 -4.937930
v -3.121559 -3.910912 -5.917090
v -3.121559 -3.345552 -6.896260
v -3.121559 -2.214942 -6.896260
v -3.121559 -1.649622 -5.917090
v -3.121559 -2.214942 -4.937930
v -9.649778 -3.361212 -4.910880
v -9.649778 -3.942122 -5.917090
v -9.649778 -3.361212 -6.923300
v -9.649778 -2.199312 -6.923300
v -9.649778 -1.618372 -5.917090
v -9.649778 -2.199312 -4.910880
v 10.207172 -2.780272 5.917150
v -16.343958 -2.780272 5.917150
v 3.164042 -3.194962 5.198900
v 3.164042 -2.365602 5.198900
v 3.164042 -1.950912 5.917150
v 3.164042 -2.365602 6.635400
v 3.164042 -3.194962 6.635400
v 3.164042 -3.609632 5.917150
v -13.246429 -1.891742 5.917150
v -13.246429 -2.336012 6.686640
v -13.246429 -3.224542 6.686640
v -13.246429 -3.668802 5.917150
v -13.246429 -3.224542 5.147660
v -13.246429 -2.336012 5.147660
v -3.121559 -3.345552 6.896310
v -3.121559 -3.910912 5.917150
v -3.121559 -3.345552 4.937990
v -3.121559 -2.214942 4.937990
v -3.121559 -1.649622 5.917150
v -3.121559 -2.214942 6.896310
v -9.649778 -3.361212 6.923360
v -9.649778 -3.942122 5.917150
v -9.649778 -3.361212 4.910940
v -9.649778 -2.199312 4.910940
v -9.649778 -1.618372 5.917150
v -9.649778 -2.199312 6.923360
v -8.888958 1.689868 3.519310
v 15.725481 -1.726712 2.342550
v -8.888958 3.570518 3.519310
v 14.999533 -0.318982 2.342550
v -8.888958 3.570518 -3.519310
v 14.999533 -0.318982 -2.342550
v -8.888958 1.689868 -3.519310
v 15.725481 -1.726712 -2.342550
v -0.199618 3.570518 4.330990
v -0.199618 3.570518 -4.330990
v 0.805232 1.689868 -4.330990
v 0.805232 1.689868 4.330990
v -12.963339 -1.292772 11.753310
v -5.081698 -1.292772 11.753310
v -6.086548 -0.318982 11.753310
v -12.963339 -0.318982 11.753310
v -12.963339 -0.318982 -11.753310
v -6.086548 -0.318982 -11.753310
v -5.081698 -1.292772 -11.753310
v -12.963339 -1.292772 -11.753310
v -8.886139 4.167278 0.000000
v 14.999533 -0.080732 -0.000000
v -0.199618 4.167278 0.000000
vn 1.000000 -0.000034 -0.000002
vn -1.000000 -0.000006 -0.000000
vn 0.082485 -0.498301 -0.863071
vn 0.082486 0.498295 -0.863075
vn 0.082487 0.996592 0.000003
vn 0.082486 0.498292 0.863076
vn 0.082486 -0.498302 0.863071
vn 0.082484 -0.996592 -0.000000
vn -0.177120 0.984189 -0.000001
vn -0.177117 0.492093 0.852334
vn -0.177115 -0.492100 0.852331
vn -0.177113 -0.984190 -0.000000
vn -0.177116 -0.492100 -0.852331
vn -0.177117 0.492093 -0.852335
vn 0.026339 -0.499822 0.865727
vn 0.026339 -0.999653 0.000001
vn 0.026339 -0.499823 -0.865727
vn 0.026341 0.499826 -0.865725
vn 0.026342 0.999653 0.000002
vn 0.026341 0.499824 0.865726
vn -0.035541 -0.499681 0.865480
vn -0.035539 -0.999368 0.000001
vn -0.035540 -0.499682 -0.865479
vn -0.035543 0.499682 -0.865479
vn -0.035544 0.999368 -0.000001
vn -0.035543 0.499683 0.865479
vn 1.000000 -0.000034 -0.000002
vn -1.000000 -0.000006 -0.000000
vn 0.082484 -0.498301 -0.863071
vn 0.082486 0.498294 -0.863076
vn 0.082487 0.996592 0.000002
vn 0.082486 0.498292 0.863076
vn 0.082486 -0.498302 0.863071
vn 0.082484 -0.996592 -0.000000
vn -0.177120 0.984189 -0.000001
vn -0.177117 0.492093 0.852334
vn -0.177115 -0.492100 0.852331
vn -0.177113 -0.984190 -0.000000
vn -0.177116 -0.492100 -0.852331
vn -0.177117 0.492093 -0.852335
vn 0.026339 -0.499822 0.865727
vn 0.026339 -0.999653 -0.000000
vn 0.026339 -0.499822 -0.865727
vn 0.026341 0.499825 -0.865726
vn 0.026342 0.999653 0.000001
vn 0.026341 0.499824 0.865726
vn -0.035541 -0.499681 0.865480
vn -0.035539 -0.999368 -0.000000
vn -0.035539 -0.499681 -0.865480
vn -0.035542 0.499682 -0.865479
vn -0.035544 0.999368 -0.000001
vn -0.035543 0.499683 0.865479
vn -0.807799 -0.545027 -0.224513
vn 0.858518 -0.016681 0.512512
vn -0.715017 0.698076 0.037959
vn 0.567405 0.649361 0.506341
vn -0.712702 0.700432 -0.038090
vn 0.565706 0.650464 -0.506826
vn -0.808116 -0.547331 0.217663
vn 0.858518 -0.016681 -0.512512
vn 0.241840 0.788358 0.565690
vn 0.248044 0.790599 -0.559846
vn 0.212636 -0.862866 -0.458529
vn 0.207081 -0.864157 0.458639
vn -0.671163 -0.724278 0.157992
vn 0.416941 -0.369044 0.830642
vn 0.239207 0.497756 0.833678
vn -0.575311 0.560570 0.595632
vn -0.575311 0.560570 -0.595632
vn 0.247556 0.503635 -0.827688
vn 0.425318 -0.366617 -0.827464
vn -0.666674 -0.724504 -0.175042
vn -0.835383 0.549668 -0.000003
vn 0.705936 0.708276 -0.000041
vn 0.131425 0.991326 -0.000050
vt 0.429208 0.876184
vt 0.561990 0.923120
vt 0.561990 0.946589
vt 0.561990 0.899652
vt 0.561990 0.876183
vt 0.561990 0.852715
vt 0.561990 0.829247
vt 0.561990 0.805778
vt 0.702628 0.843068
vt 0.702628 0.809953
vt 0.702628 0.876183
vt 0.702628 0.909299
vt 0.702628 0.942414
vt 0.702628 0.975530
vt 0.702628 0.776837
vt 0.987566 0.876183
vt 0.929170 0.899652
vt 0.929170 0.876184
vt 0.929170 0.923120
vt 0.929170 0.946589
vt 0.929170 0.829247
vt 0.929170 0.805778
vt 0.929170 0.852715
vt 0.848695 0.975530
vt 0.848695 0.942414
vt 0.848695 0.809953
vt 0.848695 0.776837
vt 0.848695 0.843068
vt 0.848695 0.876184
vt 0.848695 0.909299
vt 0.429208 0.876184
vt 0.561990 0.923120
vt 0.561990 0.946589
vt 0.561990 0.899652
vt 0.561990 0.876183
vt 0.561990 0.852715
vt 0.561990 0.829247
vt 0.561990 0.805778
vt 0.702628 0.843068
vt 0.702628 0.809953
vt 0.702628 0.876183
vt 0.702628 0.909299
vt 0.702628 0.942414
vt 0.702628 0.975530
vt 0.702628 0.776837
vt 0.987566 0.876183
vt 0.929170 0.899652
vt 0.929170 0.876184
vt 0.929170 0.923120
vt 0.929170 0.946589
vt 0.929170 0.829247
vt 0.929170 0.805778
vt 0.929170 0.852715
vt 0.848695 0.975530
vt 0.848695 0.942414
vt 0.848695 0.809953
vt 0.848695 0.776837
vt 0.848695 0.843068
vt 0.848695 0.876184
vt 0.848695 0.909299
vt 0.046400 0.176324
vt 0.298668 0.178129
vt 0.266797 0.209210
vt 0.044615 0.207304
vt 0.171301 0.469266
vt 0.449350 0.440742
vt 0.452475 0.581232
vt 0.180840 0.581232
vt 0.044619 0.955161
vt 0.266540 0.953534
vt 0.298549 0.984472
vt 0.046400 0.986140
vt 0.724116 0.298129
vt 0.892617 0.284022
vt 0.892617 0.161678
vt 0.724116 0.147570
vt 0.934137 0.581232
vt 0.940302 0.507014
vt 0.984606 0.506702
vt 0.106747 0.693199
vt 0.171302 0.693198
vt 0.497414 0.764520
vt 0.449145 0.721201
vt 0.940304 0.655450
vt 0.980743 0.688161
vt 0.464778 0.182133
vt 0.464778 0.263568
vt 0.496367 0.398288
vt 0.980741 0.474303
vt 0.826441 0.427142
vt 0.963437 0.427142
vt 0.106745 0.469266
vt 0.011850 0.207305
vt 0.963437 0.018558
vt 0.826441 0.018558
vt 0.011857 0.955162
vt 0.984611 0.655757
g polySurface3
usemtl blinn4SG
f 1/1/1 7/2/7 8/3/8 
f 1/1/1 6/4/6 7/2/7 
f 1/1/1 5/5/5 6/4/6 
f 1/1/1 4/6/4 5/5/5 
f 4/6/4 1/1/1 3/7/3 
f 1/1/1 8/8/8 3/7/3 
f 18/9/18 4/6/4 3/7/3 17/10/17 
f 18/9/18 19/11/19 5/5/5 4/6/4 
f 20/12/20 6/4/6 5/5/5 19/11/19 
f 20/12/20 15/13/15 7/2/7 6/4/6 
f 16/14/16 8/3/8 7/2/7 15/13/15 
f 17/10/17 3/7/3 8/8/8 16/15/16 
f 2/16/2 10/17/10 9/18/9 
f 2/16/2 11/19/11 10/17/10 
f 2/16/2 12/20/12 11/19/11 
f 2/16/2 13/21/13 12/22/12 
f 2/16/2 14/23/14 13/21/13 
f 2/16/2 9/18/9 14/23/14 
f 22/24/22 16/14/16 15/13/15 21/25/21 
f 23/26/23 17/10/17 16/15/16 22/27/22 
f 24/28/24 18/9/18 17/10/17 23/26/23 
f 24/28/24 25/29/25 19/11/19 18/9/18 
f 26/30/26 20/12/20 19/11/19 25/29/25 
f 26/30/26 21/25/21 15/13/15 20/12/20 
f 12/20/12 22/24/22 21/25/21 11/19/11 
f 13/21/13 23/26/23 22/27/22 12/22/12 
f 14/23/14 24/28/24 23/26/23 13/21/13 
f 14/23/14 9/18/9 25/29/25 24/28/24 
f 10/17/10 26/30/26 25/29/25 9/18/9 
f 11/19/11 21/25/21 26/30/26 10/17/10 
f 27/31/27 33/32/33 34/33/34 
f 27/31/27 32/34/32 33/32/33 
f 27/31/27 31/35/31 32/34/32 
f 27/31/27 30/36/30 31/35/31 
f 30/36/30 27/31/27 29/37/29 
f 27/31/27 34/38/34 29/37/29 
f 44/39/44 30/36/30 29/37/29 43/40/43 
f 44/39/44 45/41/45 31/35/31 30/36/30 
f 46/42/46 32/34/32 31/35/31 45/41/45 
f 46/42/46 41/43/41 33/32/33 32/34/32 
f 42/44/42 34/33/34 33/32/33 41/43/41 
f 43/40/43 29/37/29 34/38/34 42/45/42 
f 28/46/28 36/47/36 35/48/35 
f 28/46/28 37/49/37 36/47/36 
f 28/46/28 38/50/38 37/49/37 
f 28/46/28 39/51/39 38/52/38 
f 28/46/28 40/53/40 39/51/39 
f 28/46/28 35/48/35 40/53/40 
f 48/54/48 42/44/42 41/43/41 47/55/47 
f 49/56/49 43/40/43 42/45/42 48/57/48 
f 50/58/50 44/39/44 43/40/43 49/56/49 
f 50/58/50 51/59/51 45/41/45 44/39/44 
f 52/60/52 46/42/46 45/41/45 51/59/51 
f 52/60/52 47/55/47 41/43/41 46/42/46 
f 38/50/38 48/54/48 47/55/47 37/49/37 
f 39/51/39 49/56/49 48/57/48 38/52/38 
f 40/53/40 50/58/50 49/56/49 39/51/39 
f 40/53/40 35/48/35 51/59/51 50/58/50 
f 36/47/36 52/60/52 51/59/51 35/48/35 
f 37/49/37 47/55/47 52/60/52 36/47/36 
f 65/61/65 66/62/66 67/63/67 68/64/68 
f 55/65/55 61/66/61 75/67/75 73/68/73 
f 69/69/69 70/70/70 71/71/71 72/72/72 
f 64/73/64 53/74/53 59/75/59 63/76/63 
f 74/77/74 56/78/56 54/79/54 
f 59/80/59 73/68/73 57/81/57 
f 74/77/74 75/67/75 61/66/61 56/78/56 
f 63/82/63 62/83/62 58/84/58 60/85/60 
f 64/73/64 63/76/63 60/86/60 54/87/54 
f 56/78/56 61/66/61 64/88/64 54/89/54 
f 53/74/53 64/73/64 66/90/66 65/91/65 
f 64/88/64 61/66/61 67/63/67 66/62/66 
f 61/66/61 55/65/55 68/64/68 67/63/67 
f 68/64/68 55/65/55 53/92/53 65/93/65 
f 69/69/69 57/81/57 62/83/62 70/70/70 
f 62/83/62 63/82/63 71/71/71 70/70/70 
f 63/76/63 59/75/59 72/94/72 71/95/71 
f 59/80/59 57/81/57 69/69/69 72/96/72 
f 58/84/58 62/83/62 75/67/75 74/77/74 
f 73/68/73 75/67/75 62/83/62 57/81/57 
f 74/77/74 60/97/60 58/84/58 
f 74/77/74 54/79/54 60/97/60 
f 53/92/53 55/65/55 73/68/73 
f 53/92/53 73/68/73 59/80/59 
