# 3ds Max Wavefront OBJ Exporter v0.94b - (c)2007 guruware
# File Created: 31.01.2010 19:07:54

mtllib car1backwheel.mtl

#
# object Cylinder04
#

v  -11.1964 2.7223 -3.8781
v  -10.7638 4.3620 -4.7322
v  -10.7638 5.6769 -5.7808
v  -10.7638 6.4067 -7.2961
v  -10.7638 6.4067 -8.9780
v  -10.7638 5.6769 -10.4933
v  -10.7638 4.3620 -11.5419
v  -10.7638 2.7223 -11.9162
v  -10.7638 1.0826 -11.5419
v  -10.7638 -0.2323 -10.4933
v  -10.7638 -0.9621 -8.9780
v  -10.7638 -0.9621 -7.2961
v  -10.7638 -0.2323 -5.7808
v  -11.1964 0.8744 -4.2999
v  -13.5394 2.7223 -3.8781
v  -13.5394 4.5702 -4.2999
v  -13.5394 6.0521 -5.4817
v  -13.5394 6.8745 -7.1894
v  -13.5394 6.8745 -9.0848
v  -13.5394 6.0521 -10.7925
v  -13.5394 4.5702 -11.9742
v  -13.5394 2.7223 -12.3960
v  -13.5394 0.8744 -11.9742
v  -13.5394 -0.6075 -10.7925
v  -13.5394 -1.4298 -9.0848
v  -13.5394 -1.4298 -7.1894
v  -13.5394 -0.6075 -5.4817
v  -13.5394 0.8744 -4.2999
v  -13.9719 2.7223 -5.2155
v  -13.9719 3.9899 -5.5048
v  -13.9719 5.0065 -6.3155
v  -13.9719 5.5706 -7.4870
v  -13.9719 5.5706 -8.7872
v  -13.9719 5.0065 -9.9586
v  -13.9719 3.9899 -10.7693
v  -13.9719 2.7223 -11.0586
v  -13.9719 1.4547 -10.7693
v  -13.9719 0.4381 -9.9586
v  -13.9719 -0.1260 -8.7872
v  -13.9719 -0.1260 -7.4870
v  -13.9719 0.4381 -6.3155
v  -13.9719 1.4547 -5.5048
v  -12.9595 2.7223 -5.6953
v  -12.9595 3.7817 -5.9371
v  -12.9595 4.6313 -6.6147
v  -12.9595 5.1028 -7.5937
v  -12.9595 5.1028 -8.6804
v  -12.9595 4.6313 -9.6595
v  -12.9595 3.7817 -10.3370
v  -12.9595 2.7223 -10.5788
v  -12.9595 1.6629 -10.3370
v  -12.9595 0.8133 -9.6595
v  -12.9595 0.3418 -8.6804
v  -12.9595 0.3418 -7.5937
v  -12.9595 0.8133 -6.6147
v  -12.9595 1.6629 -5.9371
v  -10.0855 2.7223 -8.1371
v  -10.7638 2.7223 -4.3580
v  -11.1964 4.5702 -4.2999
v  -11.1964 6.0521 -5.4817
v  -11.1964 6.8745 -7.1894
v  -11.1964 6.8745 -9.0848
v  -11.1964 6.0521 -10.7925
v  -11.1964 4.5702 -11.9742
v  -11.1964 2.7223 -12.3960
v  -11.1964 0.8744 -11.9742
v  -11.1964 -0.6075 -10.7925
v  -11.1964 -1.4298 -9.0848
v  -11.1964 -1.4298 -7.1894
v  -11.1964 -0.6075 -5.4817
v  -10.7638 1.0826 -4.7322
v  -13.9719 2.7223 -4.3580
v  -13.9719 4.3620 -4.7322
v  -13.9719 5.6769 -5.7808
v  -13.9719 6.4067 -7.2961
v  -13.9719 6.4067 -8.9780
v  -13.9719 5.6769 -10.4933
v  -13.9719 4.3620 -11.5419
v  -13.9719 2.7223 -11.9162
v  -13.9719 1.0826 -11.5419
v  -13.9719 -0.2323 -10.4933
v  -13.9719 -0.9621 -8.9780
v  -13.9719 -0.9621 -7.2961
v  -13.9719 -0.2323 -5.7808
v  -13.9719 1.0826 -4.7322
v  -13.5394 2.7223 -5.6953
v  -13.5394 3.7817 -5.9371
v  -13.5394 4.6313 -6.6147
v  -13.5394 5.1028 -7.5937
v  -13.5394 5.1028 -8.6804
v  -13.5394 4.6313 -9.6595
v  -13.5394 3.7817 -10.3370
v  -13.5394 2.7223 -10.5788
v  -13.5394 1.6629 -10.3370
v  -13.5394 0.8133 -9.6595
v  -13.5394 0.3418 -8.6804
v  -13.5394 0.3418 -7.5937
v  -13.5394 0.8133 -6.6147
v  -13.5394 1.6629 -5.9371
v  -14.3019 2.7223 -7.6932
v  -14.3019 2.9149 -7.7371
v  -14.3019 3.0694 -7.8603
v  -14.3019 3.1551 -8.0383
v  -14.3019 3.1551 -8.2359
v  -14.3019 3.0694 -8.4139
v  -14.3019 2.9149 -8.5370
v  -14.3019 2.7223 -8.5810
v  -14.3019 2.5297 -8.5370
v  -14.3019 2.3752 -8.4139
v  -14.3019 2.2895 -8.2359
v  -14.3019 2.2895 -8.0383
v  -14.3019 2.3752 -7.8603
v  -14.3019 2.5297 -7.7371
v  -14.7624 2.7223 -8.1371
v  -10.7638 3.6425 -6.2262
v  -10.7638 2.7223 -6.0162
v  -10.7638 1.8021 -6.2262
v  -10.7638 1.0641 -6.8147
v  -10.7638 0.6546 -7.6651
v  -10.7638 0.6546 -8.6090
v  -10.7638 1.0641 -9.4594
v  -10.7638 1.8021 -10.0480
v  -10.7638 2.7223 -10.2580
v  -10.7638 3.6425 -10.0480
v  -10.7638 4.3805 -9.4594
v  -10.7638 4.7901 -8.6090
v  -10.7638 4.7901 -7.6651
v  -10.7638 4.3805 -6.8147
v  -10.0855 3.6425 -6.2262
v  -10.0855 2.7223 -6.0162
v  -10.0855 1.8021 -6.2262
v  -10.0855 1.0641 -6.8147
v  -10.0855 0.6546 -7.6651
v  -10.0855 0.6546 -8.6090
v  -10.0855 1.0641 -9.4594
v  -10.0855 1.8021 -10.0480
v  -10.0855 2.7223 -10.2580
v  -10.0855 3.6425 -10.0480
v  -10.0855 4.3805 -9.4594
v  -10.0855 4.7901 -8.6090
v  -10.0855 4.7901 -7.6651
v  -10.0855 4.3805 -6.8147
v  -11.1964 4.5895 -4.2155
v  -13.5394 4.5895 -4.2155
v  -13.5394 2.7416 -3.7937
v  -11.1964 2.7416 -3.7937
v  -13.5394 6.1301 -5.4441
v  -11.1964 6.1301 -5.4441
v  -11.1964 6.9525 -7.1518
v  -13.5394 6.9525 -7.1518
v  -13.5394 6.9525 -9.1224
v  -11.1964 6.9525 -9.1224
v  -11.1964 6.1301 -10.8301
v  -13.5394 6.1301 -10.8301
v  -13.5394 4.5895 -12.0587
v  -11.1964 4.5895 -12.0587
v  -11.1964 2.7416 -12.4804
v  -13.5394 2.7416 -12.4804
v  -13.5394 0.8204 -12.0419
v  -11.1964 0.8204 -12.0419
v  -11.1964 -0.6614 -10.8602
v  -13.5394 -0.6614 -10.8602
v  -13.5394 -1.5164 -9.0848
v  -11.1964 -1.5164 -9.0848
v  -11.1964 -1.5164 -7.1894
v  -13.5394 -1.5164 -7.1894
v  -13.5394 -0.6614 -5.4140
v  -11.1964 -0.6614 -5.4140
v  -11.1964 0.8204 -4.2322
v  -13.5394 0.8204 -4.2322
# 170 vertices

vn -0.0000 0.2225 0.9749
vn -0.0000 0.6235 0.7818
vn -0.0000 0.9010 0.4339
vn -0.0000 1.0000 -0.0000
vn 0.0000 0.9010 -0.4339
vn 0.0000 0.6235 -0.7818
vn 0.0000 0.2225 -0.9749
vn 0.0000 -0.2225 -0.9749
vn 0.0000 -0.6235 -0.7818
vn 0.0000 -0.9010 -0.4339
vn 0.0000 -1.0000 0.0000
vn -0.0000 -0.9010 0.4339
vn -0.0000 -0.6235 0.7818
vn -0.0000 -0.2225 0.9749
vn -1.0000 -0.0000 -0.0000
vn 1.0000 0.0000 0.0000
vn 0.7071 0.1573 0.6894
vn -0.7071 0.1573 0.6894
vn 0.7071 0.4409 0.5528
vn -0.7071 0.4409 0.5528
vn 0.7071 0.6371 0.3068
vn -0.7071 0.6371 0.3068
vn 0.7071 0.7071 -0.0000
vn -0.7071 0.7071 -0.0000
vn 0.7071 0.6371 -0.3068
vn -0.7071 0.6371 -0.3068
vn 0.7071 0.4409 -0.5528
vn -0.7071 0.4409 -0.5528
vn 0.7071 0.1573 -0.6894
vn -0.7071 0.1573 -0.6894
vn 0.7071 -0.1573 -0.6894
vn -0.7071 -0.1573 -0.6894
vn 0.7071 -0.4409 -0.5528
vn -0.7071 -0.4409 -0.5528
vn 0.7071 -0.6371 -0.3068
vn -0.7071 -0.6371 -0.3068
vn 0.7071 -0.7071 0.0000
vn -0.7071 -0.7071 -0.0000
vn 0.7071 -0.6371 0.3068
vn -0.7071 -0.6371 0.3068
vn 0.7071 -0.4409 0.5528
vn -0.7071 -0.4409 0.5528
vn 0.7071 -0.1573 0.6894
vn -0.7071 -0.1573 0.6894
vn -0.7071 -0.7071 0.0000
vn -0.8018 0.1330 0.5826
vn -0.8018 0.3726 0.4672
vn -0.8018 0.5384 0.2593
vn -0.8018 0.5976 0.0000
vn -0.8018 0.5384 -0.2593
vn -0.8018 0.3726 -0.4672
vn -0.8018 0.1330 -0.5826
vn -0.8018 -0.1330 -0.5826
vn -0.8018 -0.3726 -0.4672
vn -0.8018 -0.5384 -0.2593
vn -0.8018 -0.5976 -0.0000
vn -0.8018 -0.5384 0.2593
vn -0.8018 -0.3726 0.4672
vn -0.8018 -0.1330 0.5826
vn -0.6560 0.1680 0.7359
vn -0.6560 0.4706 0.5901
vn -0.6560 0.6801 0.3275
vn -0.6560 0.7548 0.0000
vn -0.6560 0.6801 -0.3275
vn -0.6560 0.4706 -0.5901
vn -0.6560 0.1680 -0.7359
vn -0.6560 -0.1680 -0.7359
vn -0.6560 -0.4706 -0.5901
vn -0.6560 -0.6801 -0.3275
vn -0.6560 -0.7548 -0.0000
vn -0.6560 -0.6801 0.3275
vn -0.6560 -0.4706 0.5901
vn -0.6560 -0.1680 0.7359
vn -0.0000 0.9749 -0.2225
vn 0.0000 -0.9749 0.2225
vn -0.0000 -0.4339 0.9010
vn 0.0000 0.4339 -0.9010
vn -0.0000 0.4339 0.9010
vn 0.0000 -0.4339 -0.9010
vn -0.0000 0.9749 0.2225
vn 0.0000 -0.9749 -0.2225
vn 0.0000 0.7818 -0.6235
vn -0.0000 -0.7818 0.6235
vn 0.0000 -0.0000 -1.0000
vn -0.0000 0.0000 1.0000
vn 0.0000 -0.7818 -0.6235
vn -0.0000 0.7818 0.6235
# 87 vertex normals

vt 0.7500 0.1348 1.0000
vt 0.8214 0.1348 1.0000
vt 0.8214 0.8652 1.0000
vt 0.7500 0.8652 1.0000
vt 0.8929 0.1348 1.0000
vt 0.8929 0.8652 1.0000
vt 0.9643 0.1348 1.0000
vt 0.9643 0.8652 1.0000
vt 1.0357 0.1348 1.0000
vt 1.0357 0.8652 1.0000
vt 0.0357 0.1348 1.0000
vt 0.1071 0.1348 1.0000
vt 0.1071 0.8652 1.0000
vt 0.0357 0.8652 1.0000
vt 0.1786 0.1348 1.0000
vt 0.1786 0.8652 1.0000
vt 0.2500 0.1348 1.0000
vt 0.2500 0.8652 1.0000
vt 0.3214 0.1348 1.0000
vt 0.3214 0.8652 1.0000
vt 0.3929 0.1348 1.0000
vt 0.3929 0.8652 1.0000
vt 0.4643 0.1348 1.0000
vt 0.4643 0.8652 1.0000
vt 0.5357 0.1348 1.0000
vt 0.5357 0.8652 1.0000
vt 0.6071 0.1348 1.0000
vt 0.6071 0.8652 1.0000
vt 0.6786 0.1348 1.0000
vt 0.6786 0.8652 1.0000
vt 0.6840 1.0000 0.8020
vt 0.6793 0.9869 0.8020
vt 0.4252 0.9636 0.4480
vt 0.5660 1.0000 0.4480
vt 0.6859 0.9503 0.8020
vt 0.3160 0.8615 0.4480
vt 0.7130 0.8974 0.8020
vt 0.2638 0.7139 0.4480
vt 0.7655 0.8386 0.8020
vt 0.2827 0.5501 0.4480
vt 0.0296 0.8386 0.8020
vt 0.1077 0.7857 0.8020
vt 0.1086 0.4026 0.4480
vt 0.2062 0.7490 0.8020
vt 0.2555 0.3005 0.4480
vt 0.3160 0.7360 0.8020
vt 0.4340 0.2640 0.4480
vt 0.4259 0.7490 0.8020
vt 0.6125 0.3005 0.4480
vt 0.5244 0.7857 0.8020
vt 0.7594 0.4026 0.4480
vt 0.6024 0.8386 0.8020
vt 0.8493 0.5501 0.4480
vt 0.6550 0.8974 0.8020
vt 0.8682 0.7139 0.4480
vt 0.6821 0.9503 0.8020
vt 0.8160 0.8615 0.4480
vt 0.6887 0.9869 0.8020
vt 0.7068 0.9636 0.4480
vt 0.5000 1.0000 0.2500
vt 0.2831 0.9505 0.2500
vt 0.1091 0.8117 0.2500
vt 0.0125 0.6113 0.2500
vt 0.0125 0.3887 0.2500
vt 0.1091 0.1883 0.2500
vt 0.2831 0.0495 0.2500
vt 0.5000 0.0000 0.2500
vt 0.7169 0.0495 0.2500
vt 0.8909 0.1883 0.2500
vt 0.9875 0.3887 0.2500
vt 0.9875 0.6113 0.2500
vt 0.8909 0.8117 0.2500
vt 0.7169 0.9505 0.2500
vt 0.7218 0.0563 0.8592
vt 0.6109 0.2782 0.3046
vt 0.6426 0.2782 0.3046
vt 0.7852 0.0563 0.8592
vt 0.6585 0.0563 0.8592
vt 0.5792 0.2782 0.3046
vt 0.5951 0.0563 0.8592
vt 0.5475 0.2782 0.3046
vt 0.5317 0.0563 0.8592
vt 0.5158 0.2782 0.3046
vt 0.4683 0.0563 0.8592
vt 0.4842 0.2782 0.3046
vt 0.4049 0.0563 0.8592
vt 0.4525 0.2782 0.3046
vt 0.3415 0.0563 0.8592
vt 0.4208 0.2782 0.3046
vt 0.2782 0.0563 0.8592
vt 0.3891 0.2782 0.3046
vt 0.2148 0.0563 0.8592
vt 0.3574 0.2782 0.3046
vt 0.1514 0.0563 0.8592
vt 0.3257 0.2782 0.3046
vt 0.0880 0.0563 0.8592
vt 0.2940 0.2782 0.3046
vt 0.9120 0.0563 0.8592
vt 0.7060 0.2782 0.3046
vt 0.7377 0.2782 0.3046
vt 0.9754 0.0563 0.8592
vt 0.8486 0.0563 0.8592
vt 0.6743 0.2782 0.3046
vt 0.5000 0.5000 0.2500
vt 0.5000 0.5000 -0.2500
# 105 texture coords

g Cylinder04
usemtl wire_086086086
s 8
f -25/-105/-87 -28/-104/-87 -27/-103/-87 -26/-102/-87 
f -112/-104/-86 -111/-101/-86 -154/-100/-86 -155/-103/-86 
f -23/-101/-85 -22/-99/-85 -21/-98/-85 -24/-100/-85 
f -110/-99/-84 -109/-97/-84 -152/-96/-84 -153/-98/-84 
f -19/-95/-83 -18/-94/-83 -17/-93/-83 -20/-92/-83 
f -108/-94/-82 -107/-91/-82 -150/-90/-82 -151/-93/-82 
f -15/-91/-81 -14/-89/-81 -13/-88/-81 -16/-90/-81 
f -106/-89/-80 -105/-87/-80 -148/-86/-80 -149/-88/-80 
f -11/-87/-79 -10/-85/-79 -9/-84/-79 -12/-86/-79 
f -104/-85/-78 -103/-83/-78 -146/-82/-78 -147/-84/-78 
f -7/-83/-77 -6/-81/-77 -5/-80/-77 -8/-82/-77 
f -102/-81/-76 -101/-79/-76 -144/-78/-76 -145/-80/-76 
f -3/-79/-75 -2/-77/-75 -1/-76/-75 -4/-78/-75 
f -157/-77/-74 -170/-105/-74 -156/-102/-74 -143/-76/-74 
s off
f -99/-75/-73 -98/-74/-73 -141/-73/-73 -142/-72/-73 
f -98/-74/-73 -97/-71/-73 -140/-70/-73 -141/-73/-73 
f -97/-71/-73 -96/-69/-73 -139/-68/-73 -140/-70/-73 
f -96/-69/-73 -95/-67/-73 -138/-66/-73 -139/-68/-73 
f -95/-65/-73 -94/-64/-73 -137/-63/-73 -138/-66/-73 
f -94/-64/-73 -93/-62/-73 -136/-61/-73 -137/-63/-73 
f -93/-62/-73 -92/-60/-73 -135/-59/-73 -136/-61/-73 
f -92/-60/-73 -91/-58/-73 -134/-57/-73 -135/-59/-73 
f -91/-58/-73 -90/-56/-73 -133/-55/-73 -134/-57/-73 
f -90/-56/-73 -89/-54/-73 -132/-53/-73 -133/-55/-73 
f -89/-54/-73 -88/-52/-73 -131/-51/-73 -132/-53/-73 
f -88/-52/-73 -87/-50/-73 -130/-49/-73 -131/-51/-73 
f -87/-50/-73 -86/-48/-73 -129/-47/-73 -130/-49/-73 
f -86/-48/-73 -99/-75/-73 -142/-72/-73 -129/-47/-73 
f -85/-46/-80 -84/-45/-80 -127/-45/-80 -128/-46/-80 
f -84/-45/-79 -83/-44/-79 -126/-44/-79 -127/-45/-79 
f -83/-44/-78 -82/-43/-78 -125/-43/-78 -126/-44/-78 
f -82/-43/-77 -81/-42/-77 -124/-42/-77 -125/-43/-77 
f -81/-42/-76 -80/-41/-76 -123/-41/-76 -124/-42/-76 
f -80/-41/-75 -79/-40/-75 -122/-40/-75 -123/-41/-75 
f -79/-40/-74 -78/-39/-74 -121/-39/-74 -122/-40/-74 
f -78/-39/-87 -77/-38/-87 -120/-38/-87 -121/-39/-87 
f -77/-38/-86 -76/-37/-86 -119/-37/-86 -120/-38/-86 
f -76/-37/-85 -75/-36/-85 -118/-36/-85 -119/-37/-85 
f -75/-36/-84 -74/-35/-84 -117/-35/-84 -118/-36/-84 
f -74/-35/-83 -73/-34/-83 -116/-34/-83 -117/-35/-83 
f -73/-34/-82 -72/-33/-82 -115/-33/-82 -116/-34/-82 
f -72/-33/-81 -85/-46/-81 -128/-46/-81 -115/-33/-81 
f -113/-32/-72 -55/-31/-72 -56/-30/-72 -169/-29/-72 
f -100/-28/-72 -54/-27/-72 -55/-31/-72 -113/-32/-72 
f -158/-26/-72 -53/-25/-72 -54/-27/-72 -100/-28/-72 
f -159/-24/-72 -52/-23/-72 -53/-25/-72 -158/-26/-72 
f -160/-22/-72 -51/-21/-72 -52/-23/-72 -159/-24/-72 
f -161/-20/-72 -50/-19/-72 -51/-21/-72 -160/-22/-72 
f -162/-18/-72 -49/-17/-72 -50/-19/-72 -161/-20/-72 
f -163/-16/-72 -48/-15/-72 -49/-17/-72 -162/-18/-72 
f -164/-14/-72 -47/-13/-72 -48/-15/-72 -163/-16/-72 
f -165/-12/-72 -46/-11/-72 -47/-13/-72 -164/-14/-72 
f -166/-10/-72 -45/-9/-72 -46/-11/-72 -165/-12/-72 
f -167/-8/-72 -44/-7/-72 -45/-6/-72 -166/-5/-72 
f -168/-4/-72 -43/-3/-72 -44/-7/-72 -167/-8/-72 
f -168/-4/-72 -169/-29/-72 -56/-30/-72 -43/-3/-72 
f -169/-29/-71 -112/-104/-71 -170/-105/-71 -113/-32/-71 
f -99/-75/-70 -156/-102/-70 -155/-103/-70 -98/-74/-70 
f -168/-4/-69 -111/-101/-69 -112/-104/-69 -169/-29/-69 
f -98/-74/-68 -155/-103/-68 -154/-100/-68 -97/-71/-68 
f -167/-8/-67 -110/-99/-67 -111/-101/-67 -168/-4/-67 
f -97/-71/-66 -154/-100/-66 -153/-98/-66 -96/-69/-66 
f -166/-10/-65 -109/-97/-65 -110/-99/-65 -167/-8/-65 
f -96/-69/-64 -153/-98/-64 -152/-96/-64 -95/-67/-64 
f -165/-12/-63 -108/-94/-63 -109/-97/-63 -166/-10/-63 
f -95/-67/-62 -152/-96/-62 -151/-93/-62 -94/-64/-62 
f -164/-14/-61 -107/-91/-61 -108/-94/-61 -165/-12/-61 
f -94/-64/-60 -151/-93/-60 -150/-90/-60 -93/-62/-60 
f -163/-16/-59 -106/-89/-59 -107/-91/-59 -164/-14/-59 
f -93/-62/-58 -150/-90/-58 -149/-88/-58 -92/-60/-58 
f -162/-18/-57 -105/-87/-57 -106/-89/-57 -163/-16/-57 
f -92/-60/-56 -149/-88/-56 -148/-86/-56 -91/-58/-56 
f -161/-20/-55 -104/-85/-55 -105/-87/-55 -162/-18/-55 
f -91/-58/-54 -148/-86/-54 -147/-84/-54 -90/-56/-54 
f -160/-22/-53 -103/-83/-53 -104/-85/-53 -161/-20/-53 
f -90/-56/-52 -147/-84/-52 -146/-82/-52 -89/-54/-52 
f -159/-24/-51 -102/-81/-51 -103/-83/-51 -160/-22/-51 
f -89/-54/-50 -146/-82/-50 -145/-80/-50 -88/-52/-50 
f -158/-26/-49 -101/-79/-49 -102/-81/-49 -159/-24/-49 
f -88/-52/-48 -145/-80/-48 -144/-78/-48 -87/-50/-48 
f -100/-28/-47 -157/-77/-47 -101/-79/-47 -158/-26/-47 
f -87/-50/-46 -144/-78/-46 -143/-76/-46 -86/-48/-46 
f -113/-32/-45 -170/-105/-45 -157/-77/-45 -100/-28/-45 
f -86/-48/-44 -143/-76/-44 -156/-102/-44 -99/-75/-44 
f -85/-46/-56 -142/-72/-56 -141/-73/-56 -84/-45/-56 
f -84/-45/-54 -141/-73/-54 -140/-70/-54 -83/-44/-54 
f -83/-44/-52 -140/-70/-52 -139/-68/-52 -82/-43/-52 
f -82/-43/-43 -139/-68/-43 -138/-66/-43 -81/-42/-43 
f -81/-42/-48 -138/-66/-48 -137/-63/-48 -80/-41/-48 
f -80/-41/-46 -137/-63/-46 -136/-61/-46 -79/-40/-46 
f -79/-40/-44 -136/-61/-44 -135/-59/-44 -78/-39/-44 
f -78/-39/-70 -135/-59/-70 -134/-57/-70 -77/-38/-70 
f -77/-38/-68 -134/-57/-68 -133/-55/-68 -76/-37/-68 
f -76/-37/-66 -133/-55/-66 -132/-53/-66 -75/-36/-66 
f -75/-36/-64 -132/-53/-64 -131/-51/-64 -74/-35/-64 
f -74/-35/-62 -131/-51/-62 -130/-49/-62 -73/-34/-62 
f -73/-34/-60 -130/-49/-60 -129/-47/-60 -72/-33/-60 
f -72/-33/-58 -129/-47/-58 -142/-72/-58 -85/-46/-58 
f -128/-46/-42 -127/-45/-42 -70/-45/-42 -71/-46/-42 
f -127/-45/-41 -126/-44/-41 -69/-44/-41 -70/-45/-41 
f -126/-44/-40 -125/-43/-40 -68/-43/-40 -69/-44/-40 
f -125/-43/-39 -124/-42/-39 -67/-42/-39 -68/-43/-39 
f -124/-42/-38 -123/-41/-38 -66/-41/-38 -67/-42/-38 
f -123/-41/-37 -122/-40/-37 -65/-40/-37 -66/-41/-37 
f -122/-40/-36 -121/-39/-36 -64/-39/-36 -65/-40/-36 
f -121/-39/-35 -120/-38/-35 -63/-38/-35 -64/-39/-35 
f -120/-38/-34 -119/-37/-34 -62/-37/-34 -63/-38/-34 
f -119/-37/-33 -118/-36/-33 -61/-36/-33 -62/-37/-33 
f -118/-36/-32 -117/-35/-32 -60/-35/-32 -61/-36/-32 
f -117/-35/-31 -116/-34/-31 -59/-34/-31 -60/-35/-31 
f -116/-34/-30 -115/-33/-30 -58/-33/-30 -59/-34/-30 
f -115/-33/-29 -128/-46/-29 -71/-46/-29 -58/-33/-29 
f -71/-46/-28 -70/-45/-28 -57/-2/-28 
f -70/-45/-27 -69/-44/-27 -57/-2/-27 
f -69/-44/-26 -68/-43/-26 -57/-2/-26 
f -68/-43/-25 -67/-42/-25 -57/-2/-25 
f -67/-42/-24 -66/-41/-24 -57/-2/-24 
f -66/-41/-23 -65/-40/-23 -57/-2/-23 
f -65/-40/-22 -64/-39/-22 -57/-2/-22 
f -64/-39/-21 -63/-38/-21 -57/-2/-21 
f -63/-38/-20 -62/-37/-20 -57/-2/-20 
f -62/-37/-19 -61/-36/-19 -57/-2/-19 
f -61/-36/-18 -60/-35/-18 -57/-2/-18 
f -60/-35/-17 -59/-34/-17 -57/-2/-17 
f -59/-34/-16 -58/-33/-16 -57/-2/-16 
f -58/-33/-15 -71/-46/-15 -57/-2/-15 
f -41/-31/-72 -114/-1/-72 -42/-30/-72 
f -40/-27/-72 -114/-1/-72 -41/-31/-72 
f -39/-25/-72 -114/-1/-72 -40/-27/-72 
f -38/-23/-72 -114/-1/-72 -39/-25/-72 
f -37/-21/-72 -114/-1/-72 -38/-23/-72 
f -36/-19/-72 -114/-1/-72 -37/-21/-72 
f -35/-17/-72 -114/-1/-72 -36/-19/-72 
f -34/-15/-72 -114/-1/-72 -35/-17/-72 
f -33/-13/-72 -114/-1/-72 -34/-15/-72 
f -32/-11/-72 -114/-1/-72 -33/-13/-72 
f -31/-9/-72 -114/-1/-72 -32/-11/-72 
f -30/-7/-72 -114/-1/-72 -31/-6/-72 
f -29/-3/-72 -114/-1/-72 -30/-7/-72 
f -42/-30/-72 -114/-1/-72 -29/-3/-72 
f -56/-30/-87 -55/-31/-87 -41/-31/-87 -42/-30/-87 
f -55/-31/-74 -54/-27/-74 -40/-27/-74 -41/-31/-74 
f -54/-27/-75 -53/-25/-75 -39/-25/-75 -40/-27/-75 
f -53/-25/-76 -52/-23/-76 -38/-23/-76 -39/-25/-76 
f -52/-23/-77 -51/-21/-77 -37/-21/-77 -38/-23/-77 
f -51/-21/-78 -50/-19/-78 -36/-19/-78 -37/-21/-78 
f -50/-19/-79 -49/-17/-79 -35/-17/-79 -36/-19/-79 
f -49/-17/-80 -48/-15/-80 -34/-15/-80 -35/-17/-80 
f -48/-15/-81 -47/-13/-81 -33/-13/-81 -34/-15/-81 
f -47/-13/-82 -46/-11/-82 -32/-11/-82 -33/-13/-82 
f -46/-11/-83 -45/-9/-83 -31/-9/-83 -32/-11/-83 
f -45/-6/-84 -44/-7/-84 -30/-7/-84 -31/-6/-84 
f -44/-7/-85 -43/-3/-85 -29/-3/-85 -30/-7/-85 
f -43/-3/-86 -56/-30/-86 -42/-30/-86 -29/-3/-86 
f -112/-104/-14 -155/-103/-14 -27/-103/-14 -28/-104/-14 
f -155/-103/-73 -156/-102/-73 -26/-102/-73 -27/-103/-73 
f -156/-102/-13 -170/-105/-13 -25/-105/-13 -26/-102/-13 
f -170/-105/-72 -112/-104/-72 -28/-104/-72 -25/-105/-72 
f -154/-100/-12 -111/-101/-12 -23/-101/-12 -24/-100/-12 
f -111/-101/-72 -110/-99/-72 -22/-99/-72 -23/-101/-72 
f -110/-99/-11 -153/-98/-11 -21/-98/-11 -22/-99/-11 
f -153/-98/-73 -154/-100/-73 -24/-100/-73 -21/-98/-73 
f -152/-96/-10 -109/-97/-10 -19/-95/-10 -20/-92/-10 
f -109/-97/-72 -108/-94/-72 -18/-94/-72 -19/-95/-72 
f -108/-94/-9 -151/-93/-9 -17/-93/-9 -18/-94/-9 
f -151/-93/-73 -152/-96/-73 -20/-92/-73 -17/-93/-73 
f -150/-90/-8 -107/-91/-8 -15/-91/-8 -16/-90/-8 
f -107/-91/-72 -106/-89/-72 -14/-89/-72 -15/-91/-72 
f -106/-89/-7 -149/-88/-7 -13/-88/-7 -14/-89/-7 
f -149/-88/-73 -150/-90/-73 -16/-90/-73 -13/-88/-73 
f -148/-86/-6 -105/-87/-6 -11/-87/-6 -12/-86/-6 
f -105/-87/-72 -104/-85/-72 -10/-85/-72 -11/-87/-72 
f -104/-85/-5 -147/-84/-5 -9/-84/-5 -10/-85/-5 
f -147/-84/-73 -148/-86/-73 -12/-86/-73 -9/-84/-73 
f -146/-82/-4 -103/-83/-4 -7/-83/-4 -8/-82/-4 
f -103/-83/-72 -102/-81/-72 -6/-81/-72 -7/-83/-72 
f -102/-81/-3 -145/-80/-3 -5/-80/-3 -6/-81/-3 
f -145/-80/-73 -146/-82/-73 -8/-82/-73 -5/-80/-73 
f -144/-78/-2 -101/-79/-2 -3/-79/-2 -4/-78/-2 
f -101/-79/-72 -157/-77/-72 -2/-77/-72 -3/-79/-72 
f -157/-77/-1 -143/-76/-1 -1/-76/-1 -2/-77/-1 
f -143/-76/-73 -144/-78/-73 -4/-78/-73 -1/-76/-73 
# 154 polygons - 28 triangles

