mtllib smoothinggroups.mtl
o smoothinggroups.obj
v -3.146740 1.164800 1.164810
v -3.146740 -1.164800 1.164810
v -3.146740 1.164800 -1.164810
v -3.146740 -1.164800 -1.164810
v -1.164800 12.280000 -1.164810
v -1.164800 12.280000 1.164810
v -3.146740 12.280000 -1.164810
v -3.146740 12.280000 1.164810
v -1.164800 -1.164800 1.164810
v -1.164800 1.164800 1.164810
v -1.164800 1.164800 -1.164810
v -1.164800 -1.164800 -1.164810
vn -0.707107 0.000000 0.707107
vn -0.577350 -0.577350 0.577350
vn -0.707107 0.000000 -0.707107
vn -0.577350 -0.577350 -0.577350
vn 0.577350 0.577350 -0.577350
vn 0.577350 0.577350 0.577350
vn -0.577350 0.577350 -0.577350
vn -0.577350 0.577350 0.577350
vn 0.577350 -0.577350 0.577350
vn 0.707107 0.000000 0.707107
vn 0.707107 0.000000 -0.707107
vn 0.577350 -0.577350 -0.577350
vt 0.548713 0.183119
vt 0.548713 0.273839
vt 0.471532 0.273839
vt 0.471532 0.183119
vt 0.359734 0.726161
vt 0.359734 0.816881
vt 0.282554 0.816881
vt 0.282554 0.726161
vt 0.193929 0.273839
vt 0.193929 0.183119
vt 0.271110 0.183119
vt 0.271110 0.273839
vt 0.276226 0.726161
vt 0.276226 0.816881
vt 0.199045 0.816881
vt 0.199045 0.726161
vt 0.277437 0.273839
vt 0.368158 0.273839
vt 0.368158 0.706689
vt 0.277437 0.706689
vt 0.271110 0.706689
vt 0.193929 0.706689
vt 0.548713 0.706689
vt 0.471532 0.706689
vt 0.277437 0.183119
vt 0.368158 0.183119
vt 0.465024 0.707116
vt 0.375266 0.707116
vt 0.375266 0.274266
vt 0.465024 0.274266
vt 0.375266 0.183546
vt 0.465024 0.183546
g Cube
usemtl test1
s 0
f 9/1/9 10/2/10 1/3/1 2/4/2 
s 1
f 6/5/6 5/6/5 7/7/7 8/8/8 
s 0
f 11/9/11 12/10/12 4/11/4 3/12/3 
f 12/13/12 9/14/9 2/15/2 4/16/4 
f 10/17/10 11/18/11 5/19/5 6/20/6 
f 11/9/11 3/12/3 7/21/7 5/22/5 
f 1/3/1 10/2/10 6/23/6 8/24/8 
f 9/25/9 12/26/12 11/18/11 10/17/10 
f 8/27/8 7/28/7 3/29/3 1/30/1 
f 3/29/3 4/31/4 2/32/2 1/30/1 
